<?xml version="1.0" standalone="no"?>
<!DOCTYPE svg PUBLIC "-//W3C//DTD SVG 20010904//EN"
 "http://www.w3.org/TR/2001/REC-SVG-20010904/DTD/svg10.dtd">
<svg version="1.0" xmlns="http://www.w3.org/2000/svg"
 width="512.000000pt" height="512.000000pt" viewBox="0 0 512.000000 512.000000"
 preserveAspectRatio="xMidYMid meet">
<metadata>
Created by potrace 1.11, written by Peter Selinger 2001-2013
</metadata>
<g transform="translate(0.000000,512.000000) scale(0.100000,-0.100000)"
fill="#000000" stroke="none">
<path d="M3329 5116 c-2 -2 -31 -6 -64 -9 -88 -8 -236 -43 -340 -78 -520 -181
-916 -607 -1059 -1139 -41 -157 -51 -232 -51 -420 0 -346 74 -604 260 -901 24
-39 51 -77 83 -117 19 -24 33 -45 31 -47 -2 -3 -51 -52 -109 -110 l-104 -105
-106 105 -105 105 -846 -847 c-886 -888 -867 -868 -904 -989 -39 -129 2 -301
97 -409 136 -155 359 -197 548 -103 33 16 278 254 892 867 l848 846 -106 106
-106 106 108 106 c59 59 109 107 111 107 3 0 23 -15 46 -34 213 -172 515 -295
827 -336 63 -8 365 -6 405 3 19 4 74 15 125 23 14 3 33 7 42 10 9 3 25 7 35 9
49 10 166 51 247 87 75 33 232 119 271 150 175 135 241 196 334 307 188 227
326 538 366 826 13 94 13 368 0 450 -22 137 -45 240 -65 290 -4 11 -16 43 -25
70 -70 200 -235 452 -394 604 -253 241 -535 385 -876 447 -77 14 -405 30 -416
20z"/>
</g>
</svg>
